<svg xmlns="http://www.w3.org/2000/svg" viewBox="0 0 400 300" width="406" height="306" class="illustration styles_illustrationTablet__1DWOa"><g id="_514_chart_outline" data-name="#514_chart_outline"><rect x="107.75" y="188.94" width="46.43" height="39.69" fill="#E5261F"></rect><path d="M154.17,229.64H107.75a1,1,0,0,1-1-1v-39.7a1,1,0,0,1,1-1h46.42a1,1,0,0,1,1,1v39.7A1,1,0,0,1,154.17,229.64Zm-45.42-2h44.42v-37.7H108.75Z" fill="#093f68"></path><rect x="178.29" y="162.57" width="46.43" height="66.07" fill="#E5261F"></rect><path d="M224.71,229.64H178.29a1,1,0,0,1-1-1V162.57a1,1,0,0,1,1-1h46.42a1,1,0,0,1,1,1v66.07A1,1,0,0,1,224.71,229.64Zm-45.42-2h44.42V163.57H179.29Z" fill="#093f68"></path><rect x="248.83" y="127.21" width="46.43" height="101.43" fill="#E5261F"></rect><path d="M295.26,229.64H248.83a1,1,0,0,1-1-1V127.21a1,1,0,0,1,1-1h46.43a1,1,0,0,1,1,1V228.64A1,1,0,0,1,295.26,229.64Zm-45.43-2h44.43V128.21H249.83Z" fill="#093f68"></path><path d="M318.1,229.64H84.9a1,1,0,1,1,0-2H318.1a1,1,0,0,1,0,2Z" fill="#093f68"></path><path d="M202.55,73.7c1.44-1.53,2.54-3.54,4.07-4.94a18.61,18.61,0,0,1,1.71-1.19,4.22,4.22,0,0,0,1.89-3.88c-.27-1.82-2.3-3.63-4-4.1s-3.72.37-5.22,1.24A10.63,10.63,0,0,0,198.1,63a3.62,3.62,0,0,0-.81,3.37c-1.51,1.76-2.91,3.64-4.28,5.5l8.51,2" fill="#ffc9b0"></path><path d="M201.52,74.86a.91.91,0,0,1-.23,0l-8.51-2a1,1,0,0,1-.71-.63,1,1,0,0,1,.14-.94c1.37-1.86,2.63-3.55,4-5.16a4.8,4.8,0,0,1,1.14-3.75,11.7,11.7,0,0,1,3.13-2.4c2.33-1.37,4.29-1.8,6-1.35,2,.55,4.42,2.66,4.76,4.92a5.24,5.24,0,0,1-2.29,4.85c-.23.16-.48.31-.72.46a6.06,6.06,0,0,0-.91.64,18.84,18.84,0,0,0-2.15,2.58,27,27,0,0,1-1.86,2.32,1,1,0,0,1-1.12.23A1,1,0,0,1,201.52,74.86Zm-6.8-3.61,7,1.63.16.05a23.73,23.73,0,0,0,1.64-2.05,19.25,19.25,0,0,1,2.4-2.86,7.27,7.27,0,0,1,1.21-.86l.6-.4a3.27,3.27,0,0,0,1.48-2.93c-.21-1.39-1.95-2.91-3.3-3.28-1.14-.31-2.64.08-4.45,1.15a9.59,9.59,0,0,0-2.6,1.95,2.64,2.64,0,0,0-.65,2.4,1,1,0,0,1-.19,1C196.91,68.36,195.84,69.75,194.72,71.25Z" fill="#093f68"></path><path d="M268.25,108.07c.3,0,8.42-2.52,8.42-2.52l-2.52-8.62-9.08,2.4Z" fill="#ffc9b0"></path><path d="M268.25,109.07a1,1,0,0,1-.94-.66l-3.18-8.74a1,1,0,0,1,.05-.8,1,1,0,0,1,.63-.51l9.08-2.4a1,1,0,0,1,1.22.69l2.52,8.62a1,1,0,0,1-.67,1.24c-5.43,1.65-8.31,2.51-8.56,2.54Zm-1.87-9,2.49,6.83c1.41-.41,4.29-1.27,6.56-2l-2-6.74Z" fill="#093f68"></path><polygon points="200.63 94.96 118.67 98.71 151.81 163.15 219.99 114.97 200.63 94.96" fill="#f56132"></polygon><path d="M151.81,164.15l-.24,0a1,1,0,0,1-.65-.51L117.79,99.17a1,1,0,0,1,.84-1.46l82-3.75a1,1,0,0,1,.77.3l19.36,20a1,1,0,0,1-.14,1.51L152.39,164A1,1,0,0,1,151.81,164.15ZM120.28,99.64l31.9,62,66.28-46.85L200.22,96Z" fill="#093f68"></path><polygon points="128 136.99 125.7 126.29 181.65 108.72 188.55 118.29 128 136.99" fill="#093f68"></polygon><path d="M128,138a1,1,0,0,1-.51-.14,1,1,0,0,1-.47-.65l-2.3-10.7a1,1,0,0,1,.68-1.16l55.95-17.57a1,1,0,0,1,1.11.37l6.9,9.56a1,1,0,0,1,.14.91,1,1,0,0,1-.65.63l-60.56,18.7A.93.93,0,0,1,128,138Zm-1.13-11,1.88,8.74,58.18-18-5.67-7.85Z" fill="#093f68"></path><polygon points="136.38 156.44 133.69 146.57 186.06 122.31 190.76 132.92 136.38 156.44" fill="#093f68"></polygon><path d="M136.38,157.44a1.08,1.08,0,0,1-.43-.1,1,1,0,0,1-.53-.64l-2.69-9.87a1,1,0,0,1,.55-1.17l52.36-24.26a1,1,0,0,1,1.33.51l4.7,10.61a1,1,0,0,1,0,.76,1,1,0,0,1-.53.56l-54.38,23.51A.93.93,0,0,1,136.38,157.44Zm-1.5-10.32,2.16,7.94,52.4-22.66-3.88-8.75Z" fill="#093f68"></path><polygon points="169.11 118.24 178.1 137.59 194.26 130.19 183.53 110.89 169.11 118.24" fill="#093f68"></polygon><path d="M178.11,138.59a1,1,0,0,1-.91-.58l-9-19.35a1,1,0,0,1,.45-1.31L183.08,110a1,1,0,0,1,1.32.4l10.74,19.3a1,1,0,0,1-.46,1.4l-16.16,7.4A1,1,0,0,1,178.11,138.59Zm-7.69-19.9,8.17,17.58,14.27-6.54-9.74-17.51Z" fill="#093f68"></path><path d="M269.19,97.1c-8.72,2.39-50.06,6.19-50.06,6.19-4.33-.07-6.79-8.37-11.72-11-10.33-5.43-12.68-8-12.68-8l7.82-10.68-9-2.85S181.7,82.71,182.45,87.73c.38,2.49,14.29,12.64,14.29,12.64l-17.48,8.82,12.2,23.65,35-16.35c7.52-1.46,33-4.75,42.89-7.47Z" fill="#E5261F"></path><path d="M191.47,133.84a1,1,0,0,1-.89-.55l-12.21-23.64a1,1,0,0,1,.44-1.35l16-8.09c-4.72-3.5-13-9.95-13.36-12.33-.81-5.36,10.11-16.48,11.36-17.73a1,1,0,0,1,1-.25l9,2.85a1,1,0,0,1,.65.64,1,1,0,0,1-.14.9l-7.29,9.94c1.22,1,4.49,3.37,11.81,7.21,2.46,1.3,4.24,3.74,6,6.1s3.42,4.68,5.26,4.74c1.77-.16,41.44-3.84,49.82-6.15a1,1,0,0,1,.87.17,1,1,0,0,1,.4.79l.13,11.91a1,1,0,0,1-.73,1c-6.63,1.82-19.89,3.85-30.54,5.48-5.23.81-9.76,1.5-12.31,2l-34.85,16.29A.92.92,0,0,1,191.47,133.84Zm-10.86-24.21,11.3,21.89L226,115.59a.9.9,0,0,1,.23-.08c2.56-.5,7.17-1.21,12.51-2,10.21-1.57,22.83-3.5,29.57-5.24l-.12-9.88c-10.72,2.38-47.36,5.76-49,5.91h-.1c-2.86-.05-4.82-2.73-6.89-5.57-1.59-2.18-3.23-4.43-5.28-5.51-10.36-5.44-12.85-8-12.95-8.15a1,1,0,0,1-.08-1.27l7-9.56L193.82,72C189.38,76.52,183,84.4,183.44,87.58c.34,1.39,7.47,7.3,13.89,12a1,1,0,0,1,.4.89,1,1,0,0,1-.54.81Z" fill="#093f68"></path><path d="M186.06,123.31a1,1,0,0,1-.46-1.89l28.8-14.69a1,1,0,1,1,.91,1.78l-28.8,14.69A.91.91,0,0,1,186.06,123.31Z" fill="#093f68"></path><path d="M211.51,90.36s-3.44,15,1.19,18.36,21.55-2.78,21.55-2.78Z" fill="#f56132"></path><path d="M217.19,110.73a8.78,8.78,0,0,1-5.08-1.2c-5-3.68-2-17.8-1.58-19.4a1,1,0,0,1,.61-.7,1,1,0,0,1,.93.1l22.74,15.59a1,1,0,0,1,.43.95,1,1,0,0,1-.65.81C233.24,107.37,223.8,110.73,217.19,110.73Zm-5-18.7c-.9,4.71-1.9,13.68,1.11,15.89s13.28-.47,18.76-2.28Z" fill="#093f68"></path><rect x="272.68" y="97.07" width="10.3" height="10.3" rx="3.28" transform="translate(152.03 -165.76) rotate(44.65)" fill="#ffc9b0"></rect><path d="M277.84,109.14a4.26,4.26,0,0,1-3-1.24l-2.65-2.62a4.28,4.28,0,0,1,0-6l2.62-2.66a4.3,4.3,0,0,1,3-1.27,4.09,4.09,0,0,1,3,1.23l2.66,2.63a4.28,4.28,0,0,1,0,6l-2.62,2.66a4.3,4.3,0,0,1-3,1.27Zm0-11.84h0a2.21,2.21,0,0,0-1.61.68l-2.63,2.65a2.3,2.3,0,0,0,0,3.23l2.66,2.62h0a2.25,2.25,0,0,0,1.6.66h0a2.23,2.23,0,0,0,1.61-.68l2.62-2.65a2.3,2.3,0,0,0,0-3.23L279.41,98A2.23,2.23,0,0,0,277.81,97.3Z" fill="#093f68"></path><rect x="272.12" y="93.18" width="3.89" height="6.37" rx="1.94" transform="translate(117.73 -148.5) rotate(38.07)" fill="#ffc9b0"></rect><path d="M273.29,100.29a2.91,2.91,0,0,1-1.81-.63,2.94,2.94,0,0,1-.5-4.13l1.53-2a2.94,2.94,0,0,1,4.13-.5,2.89,2.89,0,0,1,1.11,2,2.93,2.93,0,0,1-.61,2.17l-1.53,2a3,3,0,0,1-2,1.11Zm1.54-5.85a1,1,0,0,0-.74.36l-1.54,2a1,1,0,0,0,.16,1.33,1,1,0,0,0,.7.19,1,1,0,0,0,.63-.35l1.53-2a1,1,0,0,0-.16-1.33A1,1,0,0,0,274.83,94.44Z" fill="#093f68"></path><line x1="193.28" y1="102.12" x2="202.5" y2="97.41" fill="#ffc9b0"></line><path d="M193.28,103.12a1,1,0,0,1-.46-1.89l9.23-4.71A1,1,0,0,1,203,98.3L193.73,103A1.06,1.06,0,0,1,193.28,103.12Z" fill="#093f68"></path><path d="M234.59,61.05a14.23,14.23,0,0,1,2.25.35c3.42.8,6.92,1.52,9.69,3.78a19.46,19.46,0,0,1,6.6,19.35s-4,13.83-4,13.83l-40.95-9.58a9.08,9.08,0,0,1,.78-2.57,11.36,11.36,0,0,0,.23-2.8,38.83,38.83,0,0,1,.8-7.13,27.66,27.66,0,0,1,4.74-10.14c1.3-1.83,2.77-3.7,4.86-4.55s4.92-.22,5.78,1.86A14.64,14.64,0,0,1,234.59,61.05Z" fill="#725858"></path><path d="M249.14,99.35a.86.86,0,0,1-.23,0L208,89.76a1,1,0,0,1-.77-.93,4.93,4.93,0,0,1,.52-2.14,7.16,7.16,0,0,0,.29-.75,7.88,7.88,0,0,0,.18-1.92c0-.21,0-.43,0-.64a39.45,39.45,0,0,1,.82-7.31,28.73,28.73,0,0,1,4.9-10.51c1.34-1.87,3-3.94,5.3-4.89a5.74,5.74,0,0,1,6.5,1.39,15.66,15.66,0,0,1,8.94-2h0a16.11,16.11,0,0,1,2.41.37l.61.15c3.29.77,6.7,1.56,9.48,3.83a20.43,20.43,0,0,1,6.94,20.35l-4,13.88A1,1,0,0,1,249.14,99.35ZM209.34,88l39.1,9.14c.88-3.07,3.69-12.81,3.72-12.92A18.39,18.39,0,0,0,245.9,66c-2.43-2-5.46-2.68-8.68-3.44l-.61-.14a13.35,13.35,0,0,0-2.09-.32h0a13.52,13.52,0,0,0-8.58,2.23,1,1,0,0,1-.85.13,1,1,0,0,1-.63-.58c-.64-1.53-2.89-2-4.49-1.31-1.85.75-3.19,2.49-4.42,4.2A26.64,26.64,0,0,0,211,76.5a37.25,37.25,0,0,0-.78,6.94c0,.2,0,.4,0,.6a9.1,9.1,0,0,1-.26,2.44,8.33,8.33,0,0,1-.36,1C209.49,87.65,209.41,87.84,209.34,88Z" fill="#093f68"></path><ellipse cx="213.11" cy="88.15" rx="5.11" ry="5.58" transform="translate(78.76 275.6) rotate(-76.84)" fill="#ffc9b0"></ellipse><path d="M213.34,94.29a7.05,7.05,0,0,1-5.73-3,5.81,5.81,0,0,1,2-8.48,7,7,0,0,1,9,2.11,5.86,5.86,0,0,1,.92,4.68h0a5.88,5.88,0,0,1-2.9,3.79A6.71,6.71,0,0,1,213.34,94.29ZM212.88,84a4.73,4.73,0,0,0-2.31.59,3.82,3.82,0,0,0-1.31,5.61,5,5,0,0,0,6.38,1.49,3.85,3.85,0,0,0,1.93-2.51h0A3.83,3.83,0,0,0,217,86.1,4.8,4.8,0,0,0,214,84.15,5.18,5.18,0,0,0,212.88,84Zm5.66,5.41h0Z" fill="#093f68"></path><ellipse cx="244.81" cy="95.56" rx="5.11" ry="5.58" transform="translate(96.03 312.19) rotate(-76.84)" fill="#ffc9b0"></ellipse><path d="M245,101.7a6.87,6.87,0,0,1-1.61-.19,6.8,6.8,0,0,1-4.1-2.76,5.85,5.85,0,0,1-.92-4.69,6.6,6.6,0,0,1,12.82,3h0A6.23,6.23,0,0,1,245,101.7Zm-.44-10.28a4.22,4.22,0,0,0-4.24,3.1,3.86,3.86,0,0,0,.62,3.1,4.86,4.86,0,0,0,2.91,1.95,4.39,4.39,0,0,0,5.4-3h0a4.38,4.38,0,0,0-3.53-5A5.18,5.18,0,0,0,244.59,91.42Zm5.66,5.41h0Z" fill="#093f68"></path><path d="M225.32,108.11h0A17.89,17.89,0,0,1,212,86.62l2.19-9.37s5-1.48,7.2-5.12c0,0,4.91,9.18,11.49,10.17a152.84,152.84,0,0,0,16.52,1.51l-2.56,11A17.88,17.88,0,0,1,225.32,108.11Z" fill="#ffc9b0"></path><path d="M229.43,109.59a19.47,19.47,0,0,1-4.34-.5A18.9,18.9,0,0,1,211,86.4L213.19,77a1,1,0,0,1,.69-.73s4.63-1.42,6.63-4.68a1,1,0,0,1,.88-.48,1,1,0,0,1,.85.53c0,.08,4.76,8.75,10.76,9.65a154.32,154.32,0,0,0,16.4,1.5,1,1,0,0,1,.77.39,1,1,0,0,1,.18.84L247.79,95a18.91,18.91,0,0,1-18.36,14.6ZM215,78,213,86.85a16.89,16.89,0,0,0,32.89,7.69l2.28-9.78c-2.58-.12-8.88-.48-15.42-1.47-5.47-.83-9.74-6.67-11.43-9.35A15.8,15.8,0,0,1,215,78Z" fill="#093f68"></path><path d="M229.8,94.72a8.67,8.67,0,0,1-3-.71,1,1,0,1,1,.78-1.84,7.65,7.65,0,0,0,1.79.51,14.59,14.59,0,0,0-.53-3.49,1,1,0,1,1,1.94-.5c.5,2,.94,4.48.17,5.48a1.34,1.34,0,0,1-1.07.55Z" fill="#093f68"></path><path d="M228.63,102.23A10.9,10.9,0,0,1,219,96.71a1,1,0,0,1,1.8-.87h0c.15.29,3.74,7.26,13.77,3a1,1,0,1,1,.78,1.84A17.49,17.49,0,0,1,228.63,102.23Z" fill="#093f68"></path><path d="M225.2,87.49a.9.9,0,0,1-.23,0,1,1,0,0,1-.74-1.2A1.71,1.71,0,0,0,224,85a1.68,1.68,0,0,0-1-.75,1.71,1.71,0,0,0-1.27.21,1.68,1.68,0,0,0-.75,1,1,1,0,1,1-1.94-.45,3.67,3.67,0,1,1,7.15,1.67A1,1,0,0,1,225.2,87.49Z" fill="#093f68"></path><path d="M240,91a.91.91,0,0,1-.23,0,1,1,0,0,1-.75-1.2,1.67,1.67,0,1,0-3.26-.76,1,1,0,0,1-1.95-.46A3.68,3.68,0,0,1,241,90.18,1,1,0,0,1,240,91Z" fill="#093f68"></path><path d="M125.7,126.29s-5.65,1.29-6.15,2.15-7.93,19-5.13,18S128,137,128,137Z" fill="#ffbc0e"></path><path d="M114.21,147.46a1.3,1.3,0,0,1-1-.47c-1.94-2.33,5.41-18.9,5.5-19.06s.71-1.22,6.79-2.61a.93.93,0,0,1,.76.13,1,1,0,0,1,.44.63l2.29,10.7a1,1,0,0,1-.36,1c-1.11.88-11,8.57-13.85,9.6A1.81,1.81,0,0,1,114.21,147.46ZM120.38,129c-.84,1.64-5.24,12.86-5.59,16.14,2.71-1.43,9.12-6.25,12.1-8.57l-2-9.08A21.76,21.76,0,0,0,120.38,129Z" fill="#093f68"></path><path d="M133.7,146.57l-5.65,2.71s-7.48,17.38-5.09,17.79,13.42-10.63,13.42-10.63Z" fill="#ffbc0e"></path><path d="M123,168.08l-.24,0a1.45,1.45,0,0,1-1-.76c-1.29-2.37,3.33-13.67,5.37-18.42a1.06,1.06,0,0,1,.49-.51l5.64-2.7a1,1,0,0,1,.85,0,1,1,0,0,1,.55.64l2.69,9.87a1,1,0,0,1-.26,1C133,161.28,125.77,168.08,123,168.08ZM128.82,150c-2.75,6.46-5.41,14-5.35,16,1.79-.64,7.24-5.36,11.8-9.88L133.05,148Z" fill="#093f68"></path><path d="M201.28,69.73a1,1,0,0,1-.6-.2,1,1,0,0,1-.2-1.4,5.52,5.52,0,0,1,1.08-1.08,2,2,0,0,1-.75-.4,1.76,1.76,0,0,1-.27-2.18,2.64,2.64,0,0,1,1.19-1c2.32-1.14,5-.7,7.44-.05a1.57,1.57,0,0,1,1,.64,1.49,1.49,0,0,1,0,1.54,17.7,17.7,0,0,1-1.55,2.5,1,1,0,0,1-1.39.21A1,1,0,0,1,207,66.9a17.13,17.13,0,0,0,1.1-1.71c-2-.47-3.88-.71-5.43,0,1,.23,2,.43,3.07.59a1,1,0,0,1-.24,2,3.9,3.9,0,0,0-3.37,1.51A1,1,0,0,1,201.28,69.73Z" fill="#093f68"></path></g></svg>